<svg width="48" height="48" viewBox="0 0 48 48" fill="none" xmlns="http://www.w3.org/2000/svg">
<path d="M39 6C37.6742 6.00106 36.4031 6.52818 35.4656 7.46563C34.5282 8.40309 34.0011 9.67424 34 11C34 11.714 34.156 12.392 34.428 13.01L30.518 17.408C29.1897 16.4912 27.614 16.0001 26 16C24.52 16 23.152 16.432 21.962 17.132L17.414 12.586L17.368 12.632C17.76 11.836 18 10.95 18 10C18 8.81331 17.6481 7.65327 16.9888 6.66658C16.3295 5.67988 15.3925 4.91085 14.2961 4.45672C13.1997 4.0026 11.9933 3.88378 10.8295 4.11529C9.66557 4.3468 8.59648 4.91824 7.75736 5.75736C6.91825 6.59647 6.3468 7.66557 6.11529 8.82946C5.88378 9.99334 6.0026 11.1997 6.45673 12.2961C6.91085 13.3925 7.67989 14.3295 8.66658 14.9888C9.65328 15.6481 10.8133 16 12 16C12.95 16 13.834 15.76 14.632 15.368L14.586 15.414L19.134 19.96C18.3993 21.1801 18.0075 22.5758 18 24C18 25.994 18.76 27.798 19.97 29.202L14.816 34.354C14.2383 34.1228 13.6222 34.0027 13 34C10.244 34 8 36.242 8 39C8 41.758 10.244 44 13 44C15.756 44 18 41.758 18 39C18 38.358 17.868 37.748 17.646 37.182L23.322 31.506C24.164 31.806 25.056 32 26 32C30.412 32 34 28.412 34 24C34 22.728 33.674 21.542 33.144 20.472L37.378 15.706C37.89 15.882 38.43 16 39 16C41.758 16 44 13.758 44 11C44 8.242 41.758 6 39 6ZM26 28C23.794 28 22 26.206 22 24C22 21.794 23.794 20 26 20C28.206 20 30 21.794 30 24C30 26.206 28.206 28 26 28Z" fill="#1D3557"/>
</svg>
